<?xml version="1.0" standalone="no"?><!DOCTYPE svg PUBLIC "-//W3C//DTD SVG 1.1//EN" "http://www.w3.org/Graphics/SVG/1.1/DTD/svg11.dtd"><svg t="1587310992331" class="icon" viewBox="0 0 1024 1024" version="1.1" xmlns="http://www.w3.org/2000/svg" p-id="1583" xmlns:xlink="http://www.w3.org/1999/xlink" width="200" height="200"><defs><style type="text/css"></style></defs><path d="M1004.125 382.534c-4.282-13.103-17.943-36.003-61.58-42.357l-173.66-25.227c-42.683-6.214-94.93-44.149-114.06-82.874l-77.661-157.37c-19.526-39.564-45.522-45.475-59.3-45.475s-39.772 5.91-59.298 45.474l-77.685 157.37c-19.106 38.703-71.33 76.661-114.036 82.875L93.184 340.177c-43.66 6.33-57.32 29.254-61.58 42.357-4.235 13.102-6.679 39.657 24.925 70.446l125.673 122.485c30.906 30.138 50.851 91.531 43.543 134.074l-29.649 172.963c-5.748 33.466 3.514 52.922 12.311 63.371 17.874 21.179 49.897 24.088 83.642 6.377l155.3-81.664c36.258-19.014 104.773-19.037 141.032 0l155.346 81.664c14.987 7.866 29.277 11.87 42.519 11.87 16.547 0 31.139-6.47 41.076-18.247 8.797-10.426 18.06-29.905 12.335-63.348l-29.65-172.986c-7.284-42.52 12.637-103.913 43.544-134.051l125.672-122.484c31.581-30.813 29.138-57.368 24.902-70.47z" fill="#FF9C00" p-id="1584"></path></svg>