<?xml version="1.0" standalone="no"?><!DOCTYPE svg PUBLIC "-//W3C//DTD SVG 1.1//EN" "http://www.w3.org/Graphics/SVG/1.1/DTD/svg11.dtd"><svg t="1587311086451" class="icon" viewBox="0 0 1024 1024" version="1.1" xmlns="http://www.w3.org/2000/svg" p-id="1841" xmlns:xlink="http://www.w3.org/1999/xlink" width="200" height="200"><defs><style type="text/css"></style></defs><path d="M997.303 192c0-53.467-78.446-51.2-78.446 0v694.71a32.183 32.183 0 0 1-32.183 32.184H180.663c-46.775-0.11-101.266-37.669-101.266-103.315 0-55.954 38.51-103.35 83.968-103.35h643.4c21.614 0 39.169-17.555 39.169-39.132V40.265c0-21.577-17.408-39.278-39.132-39.278h-569.82A236.178 236.178 0 0 0 1.098 236.873v580.645c0 5.741 4.316 37.705 4.425 38.912 16.64 80.53 80.97 140.8 157.989 140.8h723.273a110.885 110.885 0 0 0 110.665-110.702V192h-0.146z" fill="#15E8A9" p-id="1842"></path><path d="M806.875 776.411h-548.68c-54.126 0-51.457 78.483 0 78.483h548.68c50.542 0 55.15-78.483 0-78.483z" fill="#15E8A9" p-id="1843"></path></svg>