<?xml version="1.0" encoding="iso-8859-1"?>
<!-- Generator: Adobe Illustrator 18.0.0, SVG Export Plug-In . SVG Version: 6.00 Build 0)  -->
<!DOCTYPE svg PUBLIC "-//W3C//DTD SVG 1.1//EN" "http://www.w3.org/Graphics/SVG/1.1/DTD/svg11.dtd">
<svg version="1.1" id="_x34_" xmlns="http://www.w3.org/2000/svg" xmlns:xlink="http://www.w3.org/1999/xlink" x="0px" y="0px"
	 viewBox="0 0 512 512" style="enable-background:new 0 0 512 512;" xml:space="preserve">
<g>
	<g>
		<g>
			<rect x="376.357" y="88.836" style="fill:#EAB528;" width="107.391" height="49.408"/>
		</g>
		<g>
			<rect x="382.612" y="23.825" style="fill:#962229;" width="107.39" height="49.408"/>
		</g>
		<g>
			<rect x="370.102" y="153.846" style="fill:#188A96;" width="107.39" height="49.408"/>
		</g>
		<g style="opacity:0.1;">
			<rect x="358.084" y="88.836" style="fill:#060001;" width="107.389" height="49.408"/>
		</g>
		<g style="opacity:0.1;">
			<rect x="358.084" y="23.825" style="fill:#060001;" width="107.389" height="49.408"/>
		</g>
		<g style="opacity:0.1;">
			<rect x="358.084" y="153.846" style="fill:#060001;" width="107.389" height="49.408"/>
		</g>
		<g>
			<rect x="47.511" style="fill:#F5F1E8;" width="399.057" height="512"/>
		</g>
		<g>
			<rect x="5.904" style="fill:#0D545B;" width="138.384" height="512"/>
		</g>
		<g>
			<rect style="fill:#F5CE35;" width="11.807" height="512"/>
		</g>
		<g>
			<path style="fill:#FFFFFF;" d="M113.013,41.747H47.44v12.791h40.271l-40.2,25.864l-0.071,0.07v11.456h65.573V79.137H72.882
				l40.131-26.004V41.747z"/>
			<path style="fill:#FFFFFF;" d="M94.247,111.607c-1.195-2.39-2.53-4.358-4.146-5.833c-2.32-2.179-4.92-3.655-7.801-4.357
				c-2.812-0.773-6.466-1.124-10.824-1.124c-4.357,0-7.942,0.351-10.823,1.124c-2.882,0.703-5.482,2.179-7.871,4.357
				c-1.547,1.476-2.952,3.444-4.147,5.833c-0.492,0.984-0.843,2.038-1.124,3.233c-0.422,1.687-0.633,3.655-0.633,5.763
				c0,2.108,0.211,4.006,0.633,5.693c0.281,1.195,0.632,2.249,1.124,3.233c1.195,2.46,2.6,4.428,4.147,5.974
				c2.319,2.179,4.92,3.655,7.801,4.357c2.952,0.703,6.536,1.054,10.894,1.054c4.357,0,8.012-0.351,10.824-1.124
				c2.881-0.703,5.481-2.179,7.801-4.287c1.616-1.546,2.951-3.514,4.146-5.974c1.195-2.389,1.757-5.412,1.757-8.926
				C96.004,117.019,95.443,113.996,94.247,111.607z M83.144,126.155c-1.265,1.265-2.882,2.038-4.92,2.319
				c-2.038,0.351-4.287,0.492-6.747,0.492c-2.459,0-4.779-0.141-6.817-0.492c-1.968-0.281-3.655-1.054-4.849-2.319
				c-1.406-1.406-2.109-3.233-2.109-5.552c0-2.319,0.702-4.147,2.109-5.552c1.194-1.265,2.881-2.038,4.849-2.319
				c2.038-0.281,4.357-0.422,6.817-0.422c2.46,0,4.709,0.141,6.747,0.422c2.038,0.281,3.655,1.054,4.92,2.319
				c1.405,1.406,2.108,3.233,2.108,5.552C85.251,122.922,84.549,124.749,83.144,126.155z"/>
			<path style="fill:#FFFFFF;" d="M94.036,149.488v-5.06H84.97v5.06H61.216c-1.757,0-3.444,0.281-5.061,0.773
				c-1.616,0.492-3.092,1.335-4.357,2.46c-1.265,1.195-2.319,2.6-3.163,4.357c-0.562,1.335-0.984,2.811-1.124,4.568
				c-0.071,0.562-0.071,1.124-0.071,1.757v6.536h10.191v-4.357c0-2.741,1.406-4.147,4.287-4.147H84.97v8.504h9.066v-8.504h14.197
				v-11.948H94.036z"/>
			<path style="fill:#FFFFFF;" d="M94.388,186.808c-1.054-2.53-2.671-4.709-4.779-6.536c-2.038-1.898-4.639-3.303-7.661-4.287
				c-2.6-0.914-5.622-1.406-8.996-1.476c-0.492-0.07-0.984-0.07-1.476-0.07c-4.849,0-8.855,0.633-12.018,1.898
				c-3.163,1.265-5.623,2.882-7.52,4.99c-1.898,2.038-3.163,4.428-3.936,7.098c-0.141,0.703-0.352,1.335-0.492,2.038
				c-0.422,2.038-0.633,4.076-0.633,6.185c0,1.335,0.07,2.53,0.211,3.725c0.07,0.703,0.14,1.406,0.281,2.038
				c0.07,0.211,0.07,0.422,0.141,0.633c0.281,1.546,0.702,2.882,1.264,4.147c0.703,1.406,1.477,2.741,2.39,4.006
				c0.984,1.195,2.109,2.46,3.303,3.655l7.099-7.239c-1.477-1.546-2.6-3.092-3.374-4.639c-0.773-1.546-1.125-3.584-1.125-6.255
				c0-3.444,0.985-6.044,2.952-7.801c2.039-1.827,4.568-2.671,7.732-2.671v30.01h5.06c3.373,0,6.466-0.492,9.347-1.406
				c2.811-0.914,5.271-2.249,7.38-4.006c2.038-1.827,3.584-4.006,4.779-6.606c1.125-2.6,1.687-5.552,1.687-8.926
				C96.004,192.22,95.443,189.408,94.388,186.808z M84.619,200.372c-0.914,1.335-2.108,2.319-3.514,2.952
				c-0.914,0.492-1.687,0.703-2.46,0.843c-0.772,0.141-1.686,0.211-2.741,0.281v-18.203c1.055,0.07,1.968,0.141,2.741,0.281
				c0.773,0.07,1.546,0.351,2.46,0.773c1.406,0.703,2.601,1.687,3.514,3.022c0.984,1.335,1.406,3.022,1.406,4.99
				C86.024,197.35,85.603,199.037,84.619,200.372z"/>
			<path style="fill:#FFFFFF;" d="M47.44,224.268v27.41c0,0.773,0,1.546,0.071,2.249c0.21,2.249,0.632,4.287,1.264,6.115
				c0.914,2.46,2.179,4.639,3.795,6.325c1.617,1.757,3.584,3.092,5.904,4.006c2.319,0.984,4.92,1.406,7.801,1.406
				c2.32,0,4.428-0.351,6.256-0.984c1.827-0.632,3.514-1.687,5.06-3.092c0.632-0.633,1.265-1.335,1.757-1.968
				c0.492-0.703,1.054-1.687,1.757-2.952c2.952,5.412,7.59,8.082,13.916,8.082c2.74,0,5.201-0.492,7.45-1.406
				c2.179-0.984,4.076-2.319,5.622-4.076c1.617-1.757,2.811-3.866,3.655-6.396c0.843-2.53,1.265-5.341,1.265-8.363v-26.356H47.44z
				 M74.99,250.413c0,2.671-0.702,4.709-2.109,6.255c-1.406,1.546-3.373,2.319-5.904,2.319c-2.53,0-4.498-0.773-5.904-2.319
				c-1.476-1.546-2.179-3.584-2.179-6.255v-13.353H74.99V250.413z M101.627,249.569c0,2.671-0.703,4.709-2.039,6.255
				c-1.335,1.476-3.163,2.249-5.552,2.249c-2.319,0-4.147-0.773-5.482-2.249c-1.335-1.546-2.038-3.584-2.038-6.255v-12.51h15.111
				V249.569z"/>
			<path style="fill:#FFFFFF;" d="M94.247,289.278c-1.195-2.389-2.53-4.357-4.146-5.904c-2.32-2.108-4.92-3.584-7.801-4.287
				c-2.812-0.773-6.466-1.125-10.824-1.125c-4.357,0-7.942,0.351-10.823,1.125c-2.882,0.703-5.482,2.179-7.871,4.287
				c-1.547,1.546-2.952,3.514-4.147,5.904c-0.492,0.984-0.843,2.038-1.124,3.233c-0.422,1.687-0.633,3.584-0.633,5.693
				c0,2.108,0.211,4.006,0.633,5.693c0.281,1.195,0.632,2.319,1.124,3.303c1.195,2.39,2.6,4.428,4.147,5.904
				c2.319,2.249,4.92,3.725,7.801,4.428c2.952,0.703,6.536,1.054,10.894,1.054c4.357,0,8.012-0.422,10.824-1.125
				c2.881-0.703,5.481-2.179,7.801-4.357c1.616-1.476,2.951-3.514,4.146-5.904c1.195-2.46,1.757-5.412,1.757-8.996
				C96.004,294.62,95.443,291.668,94.247,289.278z M83.144,303.827c-1.265,1.265-2.882,1.968-4.92,2.319
				c-2.038,0.281-4.287,0.422-6.747,0.422c-2.459,0-4.779-0.141-6.817-0.422c-1.968-0.351-3.655-1.054-4.849-2.319
				c-1.406-1.406-2.109-3.303-2.109-5.622c0-2.249,0.702-4.076,2.109-5.552c1.194-1.195,2.881-1.968,4.849-2.249
				c2.038-0.351,4.357-0.492,6.817-0.492c2.46,0,4.709,0.141,6.747,0.492c2.038,0.281,3.655,1.054,4.92,2.249
				c1.405,1.476,2.108,3.303,2.108,5.552C85.251,300.523,84.549,302.421,83.144,303.827z"/>
			<path style="fill:#FFFFFF;" d="M94.247,335.313c-1.195-2.39-2.53-4.357-4.146-5.904c-1.617-1.476-3.304-2.6-5.201-3.374
				c-0.843-0.422-1.687-0.703-2.6-0.914c-2.812-0.773-6.466-1.124-10.824-1.124c-4.357,0-7.942,0.351-10.823,1.124
				c-2.882,0.703-5.482,2.179-7.871,4.287c-1.547,1.546-2.952,3.514-4.147,5.904c-0.492,0.984-0.843,2.038-1.124,3.233
				c-0.422,1.687-0.633,3.584-0.633,5.693s0.211,4.076,0.633,5.763c0.281,1.195,0.632,2.249,1.124,3.233
				c1.055,2.179,2.319,4.006,3.655,5.412c0.141,0.211,0.351,0.422,0.493,0.562c2.319,2.179,4.92,3.655,7.801,4.358
				c2.952,0.703,6.536,1.054,10.894,1.054c4.357,0,8.012-0.351,10.824-1.125c2.881-0.703,5.481-2.179,7.801-4.287
				c1.616-1.546,2.951-3.514,4.146-5.974c1.195-2.39,1.757-5.412,1.757-8.996C96.004,340.724,95.443,337.702,94.247,335.313z
				 M83.144,349.861c-1.265,1.265-2.882,2.038-4.92,2.319c-2.038,0.281-4.287,0.492-6.747,0.492c-2.459,0-4.779-0.211-6.817-0.492
				c-1.617-0.211-3.092-0.843-4.217-1.757c-0.21-0.141-0.422-0.351-0.632-0.562c-1.406-1.406-2.109-3.303-2.109-5.622
				c0-2.249,0.702-4.076,2.109-5.482c1.194-1.265,2.881-2.038,4.849-2.319c2.038-0.281,4.357-0.492,6.817-0.492
				c1.195,0,2.319,0.07,3.374,0.141c1.195,0.07,2.319,0.211,3.373,0.351c2.038,0.281,3.655,1.054,4.92,2.319
				c1.405,1.406,2.108,3.233,2.108,5.482C85.251,346.558,84.549,348.455,83.144,349.861z"/>
			<path style="fill:#FFFFFF;" d="M113.013,372.07H47.44v11.948h14.338l5.693,5.06l-19.959,11.737l-0.071,0.07v14.829l0.071-0.07
				l28.605-18.343l19.327,17.149v-14.478l-19.609-15.954h37.179V372.07z"/>
		</g>
		<g>
			<path style="fill:#FFFFFF;" d="M113.013,41.747H47.44v12.791h40.271l-40.2,25.864l-0.071,0.07v11.456h65.573V79.137H72.882
				l40.131-26.004V41.747z"/>
			<path style="fill:#FFFFFF;" d="M94.247,111.607c-1.195-2.39-2.53-4.358-4.146-5.833c-2.32-2.179-4.92-3.655-7.801-4.357
				c-2.812-0.773-6.466-1.124-10.824-1.124c-4.357,0-7.942,0.351-10.823,1.124c-2.882,0.703-5.482,2.179-7.871,4.357
				c-1.547,1.476-2.952,3.444-4.147,5.833c-0.492,0.984-0.843,2.038-1.124,3.233c-0.422,1.687-0.633,3.655-0.633,5.763
				c0,2.108,0.211,4.006,0.633,5.693c0.281,1.195,0.632,2.249,1.124,3.233c1.195,2.46,2.6,4.428,4.147,5.974
				c2.319,2.179,4.92,3.655,7.801,4.357c2.952,0.703,6.536,1.054,10.894,1.054c4.357,0,8.012-0.351,10.824-1.124
				c2.881-0.703,5.481-2.179,7.801-4.287c1.616-1.546,2.951-3.514,4.146-5.974c1.195-2.389,1.757-5.412,1.757-8.926
				C96.004,117.019,95.443,113.996,94.247,111.607z M83.144,126.155c-1.265,1.265-2.882,2.038-4.92,2.319
				c-2.038,0.351-4.287,0.492-6.747,0.492c-2.459,0-4.779-0.141-6.817-0.492c-1.968-0.281-3.655-1.054-4.849-2.319
				c-1.406-1.406-2.109-3.233-2.109-5.552c0-2.319,0.702-4.147,2.109-5.552c1.194-1.265,2.881-2.038,4.849-2.319
				c2.038-0.281,4.357-0.422,6.817-0.422c2.46,0,4.709,0.141,6.747,0.422c2.038,0.281,3.655,1.054,4.92,2.319
				c1.405,1.406,2.108,3.233,2.108,5.552C85.251,122.922,84.549,124.749,83.144,126.155z"/>
			<path style="fill:#FFFFFF;" d="M94.036,149.488v-5.06H84.97v5.06H61.216c-1.757,0-3.444,0.281-5.061,0.773
				c-1.616,0.492-3.092,1.335-4.357,2.46c-1.265,1.195-2.319,2.6-3.163,4.357c-0.562,1.335-0.984,2.811-1.124,4.568
				c-0.071,0.562-0.071,1.124-0.071,1.757v6.536h10.191v-4.357c0-2.741,1.406-4.147,4.287-4.147H84.97v8.504h9.066v-8.504h14.197
				v-11.948H94.036z"/>
			<path style="fill:#FFFFFF;" d="M94.388,186.808c-1.054-2.53-2.671-4.709-4.779-6.536c-2.038-1.898-4.639-3.303-7.661-4.287
				c-2.6-0.914-5.622-1.406-8.996-1.476c-0.492-0.07-0.984-0.07-1.476-0.07c-4.849,0-8.855,0.633-12.018,1.898
				c-3.163,1.265-5.623,2.882-7.52,4.99c-1.898,2.038-3.163,4.428-3.936,7.098c-0.141,0.703-0.352,1.335-0.492,2.038
				c-0.422,2.038-0.633,4.076-0.633,6.185c0,1.335,0.07,2.53,0.211,3.725c0.07,0.703,0.14,1.406,0.281,2.038
				c0.07,0.211,0.07,0.422,0.141,0.633c0.281,1.546,0.702,2.882,1.264,4.147c0.703,1.406,1.477,2.741,2.39,4.006
				c0.984,1.195,2.109,2.46,3.303,3.655l7.099-7.239c-1.477-1.546-2.6-3.092-3.374-4.639c-0.773-1.546-1.125-3.584-1.125-6.255
				c0-3.444,0.985-6.044,2.952-7.801c2.039-1.827,4.568-2.671,7.732-2.671v30.01h5.06c3.373,0,6.466-0.492,9.347-1.406
				c2.811-0.914,5.271-2.249,7.38-4.006c2.038-1.827,3.584-4.006,4.779-6.606c1.125-2.6,1.687-5.552,1.687-8.926
				C96.004,192.22,95.443,189.408,94.388,186.808z M84.619,200.372c-0.914,1.335-2.108,2.319-3.514,2.952
				c-0.914,0.492-1.687,0.703-2.46,0.843c-0.772,0.141-1.686,0.211-2.741,0.281v-18.203c1.055,0.07,1.968,0.141,2.741,0.281
				c0.773,0.07,1.546,0.351,2.46,0.773c1.406,0.703,2.601,1.687,3.514,3.022c0.984,1.335,1.406,3.022,1.406,4.99
				C86.024,197.35,85.603,199.037,84.619,200.372z"/>
			<path style="fill:#FFFFFF;" d="M47.44,224.268v27.41c0,0.773,0,1.546,0.071,2.249c0.21,2.249,0.632,4.287,1.264,6.115
				c0.914,2.46,2.179,4.639,3.795,6.325c1.617,1.757,3.584,3.092,5.904,4.006c2.319,0.984,4.92,1.406,7.801,1.406
				c2.32,0,4.428-0.351,6.256-0.984c1.827-0.632,3.514-1.687,5.06-3.092c0.632-0.633,1.265-1.335,1.757-1.968
				c0.492-0.703,1.054-1.687,1.757-2.952c2.952,5.412,7.59,8.082,13.916,8.082c2.74,0,5.201-0.492,7.45-1.406
				c2.179-0.984,4.076-2.319,5.622-4.076c1.617-1.757,2.811-3.866,3.655-6.396c0.843-2.53,1.265-5.341,1.265-8.363v-26.356H47.44z
				 M74.99,250.413c0,2.671-0.702,4.709-2.109,6.255c-1.406,1.546-3.373,2.319-5.904,2.319c-2.53,0-4.498-0.773-5.904-2.319
				c-1.476-1.546-2.179-3.584-2.179-6.255v-13.353H74.99V250.413z M101.627,249.569c0,2.671-0.703,4.709-2.039,6.255
				c-1.335,1.476-3.163,2.249-5.552,2.249c-2.319,0-4.147-0.773-5.482-2.249c-1.335-1.546-2.038-3.584-2.038-6.255v-12.51h15.111
				V249.569z"/>
			<path style="fill:#FFFFFF;" d="M94.247,289.278c-1.195-2.389-2.53-4.357-4.146-5.904c-2.32-2.108-4.92-3.584-7.801-4.287
				c-2.812-0.773-6.466-1.125-10.824-1.125c-4.357,0-7.942,0.351-10.823,1.125c-2.882,0.703-5.482,2.179-7.871,4.287
				c-1.547,1.546-2.952,3.514-4.147,5.904c-0.492,0.984-0.843,2.038-1.124,3.233c-0.422,1.687-0.633,3.584-0.633,5.693
				c0,2.108,0.211,4.006,0.633,5.693c0.281,1.195,0.632,2.319,1.124,3.303c1.195,2.39,2.6,4.428,4.147,5.904
				c2.319,2.249,4.92,3.725,7.801,4.428c2.952,0.703,6.536,1.054,10.894,1.054c4.357,0,8.012-0.422,10.824-1.125
				c2.881-0.703,5.481-2.179,7.801-4.357c1.616-1.476,2.951-3.514,4.146-5.904c1.195-2.46,1.757-5.412,1.757-8.996
				C96.004,294.62,95.443,291.668,94.247,289.278z M83.144,303.827c-1.265,1.265-2.882,1.968-4.92,2.319
				c-2.038,0.281-4.287,0.422-6.747,0.422c-2.459,0-4.779-0.141-6.817-0.422c-1.968-0.351-3.655-1.054-4.849-2.319
				c-1.406-1.406-2.109-3.303-2.109-5.622c0-2.249,0.702-4.076,2.109-5.552c1.194-1.195,2.881-1.968,4.849-2.249
				c2.038-0.351,4.357-0.492,6.817-0.492c2.46,0,4.709,0.141,6.747,0.492c2.038,0.281,3.655,1.054,4.92,2.249
				c1.405,1.476,2.108,3.303,2.108,5.552C85.251,300.523,84.549,302.421,83.144,303.827z"/>
			<path style="fill:#FFFFFF;" d="M94.247,335.313c-1.195-2.39-2.53-4.357-4.146-5.904c-1.617-1.476-3.304-2.6-5.201-3.374
				c-0.843-0.422-1.687-0.703-2.6-0.914c-2.812-0.773-6.466-1.124-10.824-1.124c-4.357,0-7.942,0.351-10.823,1.124
				c-2.882,0.703-5.482,2.179-7.871,4.287c-1.547,1.546-2.952,3.514-4.147,5.904c-0.492,0.984-0.843,2.038-1.124,3.233
				c-0.422,1.687-0.633,3.584-0.633,5.693s0.211,4.076,0.633,5.763c0.281,1.195,0.632,2.249,1.124,3.233
				c1.055,2.179,2.319,4.006,3.655,5.412c0.141,0.211,0.351,0.422,0.493,0.562c2.319,2.179,4.92,3.655,7.801,4.358
				c2.952,0.703,6.536,1.054,10.894,1.054c4.357,0,8.012-0.351,10.824-1.125c2.881-0.703,5.481-2.179,7.801-4.287
				c1.616-1.546,2.951-3.514,4.146-5.974c1.195-2.39,1.757-5.412,1.757-8.996C96.004,340.724,95.443,337.702,94.247,335.313z
				 M83.144,349.861c-1.265,1.265-2.882,2.038-4.92,2.319c-2.038,0.281-4.287,0.492-6.747,0.492c-2.459,0-4.779-0.211-6.817-0.492
				c-1.617-0.211-3.092-0.843-4.217-1.757c-0.21-0.141-0.422-0.351-0.632-0.562c-1.406-1.406-2.109-3.303-2.109-5.622
				c0-2.249,0.702-4.076,2.109-5.482c1.194-1.265,2.881-2.038,4.849-2.319c2.038-0.281,4.357-0.492,6.817-0.492
				c1.195,0,2.319,0.07,3.374,0.141c1.195,0.07,2.319,0.211,3.373,0.351c2.038,0.281,3.655,1.054,4.92,2.319
				c1.405,1.406,2.108,3.233,2.108,5.482C85.251,346.558,84.549,348.455,83.144,349.861z"/>
			<path style="fill:#FFFFFF;" d="M113.013,372.07H47.44v11.948h14.338l5.693,5.06l-19.959,11.737l-0.071,0.07v14.829l0.071-0.07
				l28.605-18.343l19.327,17.149v-14.478l-19.609-15.954h37.179V372.07z"/>
		</g>
		<g>
			<rect x="144.268" y="248.194" style="fill:#565657;" width="168.262" height="23.255"/>
		</g>
		<g>
			<rect x="185.931" y="332.322" style="fill:#565657;" width="225.801" height="3.283"/>
		</g>
		<g>
			<rect x="185.931" y="393.881" style="fill:#565657;" width="225.801" height="3.283"/>
		</g>
		<g>
			<rect x="185.931" y="455.44" style="fill:#565657;" width="225.801" height="3.283"/>
		</g>
	</g>
	<polygon style="opacity:0.05;fill:#231815;" points="483.747,88.836 483.747,138.243 446.568,138.243 446.568,153.846 
		477.492,153.846 477.492,203.254 446.568,203.254 446.568,512 65.291,512 65.291,473.415 112.802,425.905 117.581,421.196 
		140.141,398.636 144.288,394.49 150.191,388.586 203.184,335.594 206.487,332.29 209.58,329.198 228.064,310.784 290.684,248.164 
		358.084,180.693 370.102,168.675 384.932,153.846 449.942,88.836 	"/>
	<polygon style="opacity:0.05;fill:#231815;" points="490.002,62.55 490.002,73.233 465.544,73.233 476.227,62.55 	"/>
</g>
</svg>
