<?xml version="1.0" standalone="no"?><!DOCTYPE svg PUBLIC "-//W3C//DTD SVG 1.1//EN" "http://www.w3.org/Graphics/SVG/1.1/DTD/svg11.dtd"><svg t="1587311186830" class="icon" viewBox="0 0 1024 1024" version="1.1" xmlns="http://www.w3.org/2000/svg" p-id="1583" xmlns:xlink="http://www.w3.org/1999/xlink" width="200" height="200"><defs><style type="text/css"></style></defs><path d="M692.14 478.32L512 152.39 331.86 478.32 93.21 326 199.9 742.83a15 15 0 0 0 14.53 11.28h595.14a15 15 0 0 0 14.53-11.28L930.79 326zM217.79 815.39h588.43q15 0 15 15v57.29q0 15-15 15H217.79q-15 0-15-15v-57.29q0-15 15-15z" fill="#FE6A00" p-id="1584"></path><path d="M31 326.04a62.21 62.21 0 1 0 124.42 0 62.21 62.21 0 1 0-124.42 0z m837.58 0a62.21 62.21 0 1 0 124.42 0 62.21 62.21 0 1 0-124.42 0zM447.93 152.39a64.07 64.07 0 1 0 128.14 0 64.07 64.07 0 1 0-128.14 0z" fill="#FE6A00" p-id="1585"></path></svg>